<?xml version="1.0" encoding="UTF-8" standalone="no"?>
<!DOCTYPE svg PUBLIC "-//W3C//DTD SVG 1.1//EN"
 "http://www.w3.org/Graphics/SVG/1.1/DTD/svg11.dtd">
<!-- Generated by graphviz version 14.1.1 (20251213.1925)
 -->
<!-- Title: InheritanceTree Pages: 1 -->
<svg width="449pt" height="933pt"
 viewBox="0.00 0.00 449.00 933.00" xmlns="http://www.w3.org/2000/svg" xmlns:xlink="http://www.w3.org/1999/xlink">
<g id="graph0" class="graph" transform="scale(1 1) rotate(0) translate(4 928.5)">
<title>InheritanceTree</title>
<polygon fill="white" stroke="none" points="-4,4 -4,-928.5 444.75,-928.5 444.75,4 -4,4"/>
<text xml:space="preserve" text-anchor="middle" x="220.38" y="-7.2" font-family="Times New Roman,serif" font-size="14.00">simple_grpc &#45; Inheritance Hierarchy</text>
<!-- SIMPLE_GRPC -->
<g id="node1" class="node">
<title>SIMPLE_GRPC</title>
<path fill="none" stroke="black" d="M147.62,-60.5C147.62,-60.5 64.88,-60.5 64.88,-60.5 58.88,-60.5 52.88,-54.5 52.88,-48.5 52.88,-48.5 52.88,-36.5 52.88,-36.5 52.88,-30.5 58.88,-24.5 64.88,-24.5 64.88,-24.5 147.62,-24.5 147.62,-24.5 153.62,-24.5 159.62,-30.5 159.62,-36.5 159.62,-36.5 159.62,-48.5 159.62,-48.5 159.62,-54.5 153.62,-60.5 147.62,-60.5"/>
<text xml:space="preserve" text-anchor="middle" x="106.25" y="-37.45" font-family="Times New Roman,serif" font-size="14.00">SIMPLE_GRPC</text>
</g>
<!-- SIMPLE_GRPC_CALL -->
<g id="node2" class="node">
<title>SIMPLE_GRPC_CALL</title>
<path fill="none" stroke="black" d="M168.62,-132.5C168.62,-132.5 43.88,-132.5 43.88,-132.5 37.88,-132.5 31.88,-126.5 31.88,-120.5 31.88,-120.5 31.88,-108.5 31.88,-108.5 31.88,-102.5 37.88,-96.5 43.88,-96.5 43.88,-96.5 168.62,-96.5 168.62,-96.5 174.62,-96.5 180.62,-102.5 180.62,-108.5 180.62,-108.5 180.62,-120.5 180.62,-120.5 180.62,-126.5 174.62,-132.5 168.62,-132.5"/>
<text xml:space="preserve" text-anchor="middle" x="106.25" y="-109.45" font-family="Times New Roman,serif" font-size="14.00">SIMPLE_GRPC_CALL</text>
</g>
<!-- SIMPLE_GRPC_CHANNEL -->
<g id="node3" class="node">
<title>SIMPLE_GRPC_CHANNEL</title>
<path fill="none" stroke="black" d="M183.25,-204.5C183.25,-204.5 29.25,-204.5 29.25,-204.5 23.25,-204.5 17.25,-198.5 17.25,-192.5 17.25,-192.5 17.25,-180.5 17.25,-180.5 17.25,-174.5 23.25,-168.5 29.25,-168.5 29.25,-168.5 183.25,-168.5 183.25,-168.5 189.25,-168.5 195.25,-174.5 195.25,-180.5 195.25,-180.5 195.25,-192.5 195.25,-192.5 195.25,-198.5 189.25,-204.5 183.25,-204.5"/>
<text xml:space="preserve" text-anchor="middle" x="106.25" y="-181.45" font-family="Times New Roman,serif" font-size="14.00">SIMPLE_GRPC_CHANNEL</text>
</g>
<!-- SIMPLE_GRPC_METADATA -->
<g id="node4" class="node">
<title>SIMPLE_GRPC_METADATA</title>
<path fill="none" stroke="black" d="M187.75,-276.5C187.75,-276.5 24.75,-276.5 24.75,-276.5 18.75,-276.5 12.75,-270.5 12.75,-264.5 12.75,-264.5 12.75,-252.5 12.75,-252.5 12.75,-246.5 18.75,-240.5 24.75,-240.5 24.75,-240.5 187.75,-240.5 187.75,-240.5 193.75,-240.5 199.75,-246.5 199.75,-252.5 199.75,-252.5 199.75,-264.5 199.75,-264.5 199.75,-270.5 193.75,-276.5 187.75,-276.5"/>
<text xml:space="preserve" text-anchor="middle" x="106.25" y="-253.45" font-family="Times New Roman,serif" font-size="14.00">SIMPLE_GRPC_METADATA</text>
</g>
<!-- SIMPLE_GRPC_METHOD -->
<g id="node5" class="node">
<title>SIMPLE_GRPC_METHOD</title>
<path fill="none" stroke="black" d="M180.25,-348.5C180.25,-348.5 32.25,-348.5 32.25,-348.5 26.25,-348.5 20.25,-342.5 20.25,-336.5 20.25,-336.5 20.25,-324.5 20.25,-324.5 20.25,-318.5 26.25,-312.5 32.25,-312.5 32.25,-312.5 180.25,-312.5 180.25,-312.5 186.25,-312.5 192.25,-318.5 192.25,-324.5 192.25,-324.5 192.25,-336.5 192.25,-336.5 192.25,-342.5 186.25,-348.5 180.25,-348.5"/>
<text xml:space="preserve" text-anchor="middle" x="106.25" y="-325.45" font-family="Times New Roman,serif" font-size="14.00">SIMPLE_GRPC_METHOD</text>
</g>
<!-- SIMPLE_GRPC_SERVICE -->
<g id="node6" class="node">
<title>SIMPLE_GRPC_SERVICE</title>
<path fill="none" stroke="black" d="M178.75,-420.5C178.75,-420.5 33.75,-420.5 33.75,-420.5 27.75,-420.5 21.75,-414.5 21.75,-408.5 21.75,-408.5 21.75,-396.5 21.75,-396.5 21.75,-390.5 27.75,-384.5 33.75,-384.5 33.75,-384.5 178.75,-384.5 178.75,-384.5 184.75,-384.5 190.75,-390.5 190.75,-396.5 190.75,-396.5 190.75,-408.5 190.75,-408.5 190.75,-414.5 184.75,-420.5 178.75,-420.5"/>
<text xml:space="preserve" text-anchor="middle" x="106.25" y="-397.45" font-family="Times New Roman,serif" font-size="14.00">SIMPLE_GRPC_SERVICE</text>
</g>
<!-- SIMPLE_GRPC_STATUS -->
<g id="node7" class="node">
<title>SIMPLE_GRPC_STATUS</title>
<path fill="none" stroke="black" d="M175.38,-492.5C175.38,-492.5 37.12,-492.5 37.12,-492.5 31.12,-492.5 25.12,-486.5 25.12,-480.5 25.12,-480.5 25.12,-468.5 25.12,-468.5 25.12,-462.5 31.12,-456.5 37.12,-456.5 37.12,-456.5 175.38,-456.5 175.38,-456.5 181.38,-456.5 187.38,-462.5 187.38,-468.5 187.38,-468.5 187.38,-480.5 187.38,-480.5 187.38,-486.5 181.38,-492.5 175.38,-492.5"/>
<text xml:space="preserve" text-anchor="middle" x="106.25" y="-469.45" font-family="Times New Roman,serif" font-size="14.00">SIMPLE_GRPC_STATUS</text>
</g>
<!-- SIMPLE_HTTP2_FRAME -->
<g id="node8" class="node">
<title>SIMPLE_HTTP2_FRAME</title>
<path fill="none" stroke="black" d="M177.25,-564.5C177.25,-564.5 35.25,-564.5 35.25,-564.5 29.25,-564.5 23.25,-558.5 23.25,-552.5 23.25,-552.5 23.25,-540.5 23.25,-540.5 23.25,-534.5 29.25,-528.5 35.25,-528.5 35.25,-528.5 177.25,-528.5 177.25,-528.5 183.25,-528.5 189.25,-534.5 189.25,-540.5 189.25,-540.5 189.25,-552.5 189.25,-552.5 189.25,-558.5 183.25,-564.5 177.25,-564.5"/>
<text xml:space="preserve" text-anchor="middle" x="106.25" y="-541.45" font-family="Times New Roman,serif" font-size="14.00">SIMPLE_HTTP2_FRAME</text>
</g>
<!-- SIMPLE_PROTOBUF -->
<g id="node9" class="node">
<title>SIMPLE_PROTOBUF</title>
<path fill="none" stroke="black" d="M165.25,-636.5C165.25,-636.5 47.25,-636.5 47.25,-636.5 41.25,-636.5 35.25,-630.5 35.25,-624.5 35.25,-624.5 35.25,-612.5 35.25,-612.5 35.25,-606.5 41.25,-600.5 47.25,-600.5 47.25,-600.5 165.25,-600.5 165.25,-600.5 171.25,-600.5 177.25,-606.5 177.25,-612.5 177.25,-612.5 177.25,-624.5 177.25,-624.5 177.25,-630.5 171.25,-636.5 165.25,-636.5"/>
<text xml:space="preserve" text-anchor="middle" x="106.25" y="-613.45" font-family="Times New Roman,serif" font-size="14.00">SIMPLE_PROTOBUF</text>
</g>
<!-- SIMPLE_PROTOBUF_FIELD -->
<g id="node10" class="node">
<title>SIMPLE_PROTOBUF_FIELD</title>
<path fill="none" stroke="black" d="M187.75,-708.5C187.75,-708.5 24.75,-708.5 24.75,-708.5 18.75,-708.5 12.75,-702.5 12.75,-696.5 12.75,-696.5 12.75,-684.5 12.75,-684.5 12.75,-678.5 18.75,-672.5 24.75,-672.5 24.75,-672.5 187.75,-672.5 187.75,-672.5 193.75,-672.5 199.75,-678.5 199.75,-684.5 199.75,-684.5 199.75,-696.5 199.75,-696.5 199.75,-702.5 193.75,-708.5 187.75,-708.5"/>
<text xml:space="preserve" text-anchor="middle" x="106.25" y="-685.45" font-family="Times New Roman,serif" font-size="14.00">SIMPLE_PROTOBUF_FIELD</text>
</g>
<!-- SIMPLE_PROTOBUF_MESSAGE -->
<g id="node11" class="node">
<title>SIMPLE_PROTOBUF_MESSAGE</title>
<path fill="none" stroke="black" d="M200.5,-780.5C200.5,-780.5 12,-780.5 12,-780.5 6,-780.5 0,-774.5 0,-768.5 0,-768.5 0,-756.5 0,-756.5 0,-750.5 6,-744.5 12,-744.5 12,-744.5 200.5,-744.5 200.5,-744.5 206.5,-744.5 212.5,-750.5 212.5,-756.5 212.5,-756.5 212.5,-768.5 212.5,-768.5 212.5,-774.5 206.5,-780.5 200.5,-780.5"/>
<text xml:space="preserve" text-anchor="middle" x="106.25" y="-757.45" font-family="Times New Roman,serif" font-size="14.00">SIMPLE_PROTOBUF_MESSAGE</text>
</g>
<!-- LIB_TESTS -->
<g id="node12" class="node">
<title>LIB_TESTS</title>
<path fill="none" stroke="black" d="M136.38,-852.5C136.38,-852.5 76.12,-852.5 76.12,-852.5 70.12,-852.5 64.12,-846.5 64.12,-840.5 64.12,-840.5 64.12,-828.5 64.12,-828.5 64.12,-822.5 70.12,-816.5 76.12,-816.5 76.12,-816.5 136.38,-816.5 136.38,-816.5 142.38,-816.5 148.38,-822.5 148.38,-828.5 148.38,-828.5 148.38,-840.5 148.38,-840.5 148.38,-846.5 142.38,-852.5 136.38,-852.5"/>
<text xml:space="preserve" text-anchor="middle" x="106.25" y="-829.45" font-family="Times New Roman,serif" font-size="14.00">LIB_TESTS</text>
</g>
<!-- TEST_SET_BASE -->
<g id="node13" class="node">
<title>TEST_SET_BASE</title>
<path fill="none" stroke="black" d="M428.75,-852.5C428.75,-852.5 332.5,-852.5 332.5,-852.5 326.5,-852.5 320.5,-846.5 320.5,-840.5 320.5,-840.5 320.5,-828.5 320.5,-828.5 320.5,-822.5 326.5,-816.5 332.5,-816.5 332.5,-816.5 428.75,-816.5 428.75,-816.5 434.75,-816.5 440.75,-822.5 440.75,-828.5 440.75,-828.5 440.75,-840.5 440.75,-840.5 440.75,-846.5 434.75,-852.5 428.75,-852.5"/>
<text xml:space="preserve" text-anchor="middle" x="380.62" y="-829.45" font-family="Times New Roman,serif" font-size="14.00">TEST_SET_BASE</text>
</g>
<!-- LIB_TESTS&#45;&gt;TEST_SET_BASE -->
<g id="edge1" class="edge">
<title>LIB_TESTS&#45;&gt;TEST_SET_BASE</title>
<path fill="none" stroke="black" d="M148.82,-834.5C148.82,-834.5 308.59,-834.5 308.59,-834.5"/>
<polygon fill="none" stroke="black" points="308.59,-838 318.59,-834.5 308.59,-831 308.59,-838"/>
</g>
<!-- TEST_APP -->
<g id="node14" class="node">
<title>TEST_APP</title>
<path fill="none" stroke="black" d="M134.12,-924.5C134.12,-924.5 78.38,-924.5 78.38,-924.5 72.38,-924.5 66.38,-918.5 66.38,-912.5 66.38,-912.5 66.38,-900.5 66.38,-900.5 66.38,-894.5 72.38,-888.5 78.38,-888.5 78.38,-888.5 134.12,-888.5 134.12,-888.5 140.12,-888.5 146.12,-894.5 146.12,-900.5 146.12,-900.5 146.12,-912.5 146.12,-912.5 146.12,-918.5 140.12,-924.5 134.12,-924.5"/>
<text xml:space="preserve" text-anchor="middle" x="106.25" y="-901.45" font-family="Times New Roman,serif" font-size="14.00">TEST_APP</text>
</g>
</g>
</svg>
